<svg width="310" height="51" viewBox="0 0 310 51" fill="none" xmlns="http://www.w3.org/2000/svg">
<g clip-path="url(#clip0_84_453)">
<path d="M49.0935 11.625V4.875C49.0935 2.3925 47.0955 0.375 44.6328 0.375H4.47119V4.875H42.4025C43.6338 4.875 44.6328 5.88 44.6328 7.125V11.625H42.4025L46.8631 16.125L51.3238 11.625H49.0935Z" fill="#008BD1" stroke="#008BD1" stroke-miterlimit="10"/>
<path d="M3.95229 39.375V46.125C3.95229 48.6075 5.91933 50.625 8.34328 50.625H47.8389V46.125H10.5349C9.32679 46.125 8.34328 45.12 8.34328 43.875V39.375H10.5349L6.14391 34.875L1.75293 39.375H3.94455H3.95229Z" fill="#008BD1" stroke="#008BD1" stroke-miterlimit="10"/>
<path d="M11.7972 27.6375V12.9975H36.904V7.77H12.6104C8.13419 7.77 4.50989 12.45 4.50989 18.225V22.41C4.50989 28.185 8.13419 32.865 12.6104 32.865H36.904V27.6375H11.7972Z" fill="#707070"/>
<path d="M40.7606 23.145V37.785H15.6538V43.0125H39.9475C44.4237 43.0125 48.048 38.3325 48.048 32.5575V28.3725C48.048 22.5975 44.4237 17.9175 39.9475 17.9175H15.6538V23.145H40.7606Z" fill="#707070"/>
</g>
<path d="M79.9486 30.168H84.3431C84.2025 31.8438 83.7338 33.3379 82.9369 34.6504C82.14 35.9512 81.0209 36.9766 79.5795 37.7266C78.1381 38.4766 76.3861 38.8516 74.3236 38.8516C72.7416 38.8516 71.3177 38.5703 70.0521 38.0078C68.7865 37.4336 67.7025 36.625 66.8002 35.582C65.8978 34.5273 65.2064 33.2559 64.726 31.7676C64.2572 30.2793 64.0228 28.6152 64.0228 26.7754V24.6484C64.0228 22.8086 64.2631 21.1445 64.7435 19.6562C65.2357 18.168 65.9388 16.8965 66.8529 15.8418C67.767 14.7754 68.8627 13.9609 70.14 13.3984C71.4291 12.8359 72.8763 12.5547 74.4818 12.5547C76.5209 12.5547 78.2435 12.9297 79.6498 13.6797C81.056 14.4297 82.1459 15.4668 82.9193 16.791C83.7045 18.1152 84.1849 19.6328 84.3607 21.3438H79.9662C79.849 20.2422 79.5912 19.2988 79.1927 18.5137C78.806 17.7285 78.2318 17.1309 77.4701 16.7207C76.7084 16.2988 75.7123 16.0879 74.4818 16.0879C73.474 16.0879 72.5951 16.2754 71.8451 16.6504C71.0951 17.0254 70.4681 17.5762 69.9642 18.3027C69.4603 19.0293 69.0795 19.9258 68.8217 20.9922C68.5756 22.0469 68.4525 23.2539 68.4525 24.6133V26.7754C68.4525 28.0645 68.5638 29.2363 68.7865 30.291C69.0209 31.334 69.3724 32.2305 69.8412 32.9805C70.3217 33.7305 70.931 34.3105 71.6693 34.7207C72.4076 35.1309 73.2924 35.3359 74.3236 35.3359C75.5775 35.3359 76.5912 35.1367 77.3646 34.7383C78.1498 34.3398 78.7416 33.7598 79.14 32.998C79.5502 32.2246 79.8197 31.2812 79.9486 30.168ZM92.306 32.3125L99.7767 19.4805H104.013V38.5H99.7767V25.6504L92.306 38.5H88.0697V19.4805H92.306V32.3125ZM121.275 19.4805V22.8555H111.994V19.4805H121.275ZM124.597 19.4805V38.5H120.361V19.4805H124.597ZM110.956 19.4805H115.14L114.63 28.8848C114.56 30.2793 114.419 31.5098 114.208 32.5762C114.009 33.6309 113.74 34.5391 113.4 35.3008C113.06 36.0508 112.644 36.6602 112.152 37.1289C111.66 37.5977 111.085 37.9434 110.429 38.166C109.773 38.3887 109.035 38.5 108.214 38.5H106.896L106.878 35.0195L107.546 34.9668C107.98 34.9316 108.355 34.8203 108.671 34.6328C108.988 34.4336 109.257 34.1523 109.48 33.7891C109.714 33.4258 109.902 32.957 110.042 32.3828C110.195 31.8086 110.312 31.1289 110.394 30.3438C110.488 29.5586 110.558 28.6445 110.605 27.6016L110.956 19.4805ZM132.244 25.5273H137.851C139.492 25.5273 140.886 25.8027 142.035 26.3535C143.183 26.9043 144.056 27.6719 144.654 28.6562C145.263 29.6289 145.568 30.7422 145.568 31.9961C145.568 32.9219 145.398 33.7832 145.058 34.5801C144.718 35.3652 144.214 36.0508 143.546 36.6367C142.89 37.2227 142.081 37.6797 141.12 38.0078C140.171 38.3359 139.081 38.5 137.851 38.5H129.431V19.4805H133.685V35.1426H137.851C138.695 35.1426 139.369 34.9961 139.872 34.7031C140.376 34.4102 140.74 34.0293 140.962 33.5605C141.197 33.0918 141.314 32.5938 141.314 32.0664C141.314 31.5273 141.197 31.0176 140.962 30.5371C140.74 30.0566 140.376 29.6641 139.872 29.3594C139.369 29.0547 138.695 28.9023 137.851 28.9023H132.244V25.5273ZM158.206 30.3613H152.124L152.089 27.373H157.081C157.902 27.373 158.576 27.291 159.103 27.127C159.642 26.9629 160.04 26.7168 160.298 26.3887C160.556 26.0488 160.685 25.6387 160.685 25.1582C160.685 24.7598 160.609 24.4141 160.456 24.1211C160.304 23.8164 160.07 23.5703 159.753 23.3828C159.449 23.1836 159.062 23.043 158.593 22.9609C158.136 22.8672 157.603 22.8203 156.994 22.8203H153.531V38.5H149.294V19.4805H156.994C158.212 19.4805 159.308 19.5859 160.281 19.7969C161.265 20.0078 162.103 20.3301 162.794 20.7637C163.486 21.1973 164.013 21.748 164.376 22.416C164.751 23.0723 164.939 23.8457 164.939 24.7363C164.939 25.3223 164.81 25.873 164.552 26.3887C164.306 26.9043 163.937 27.3613 163.445 27.7598C162.953 28.1582 162.349 28.4863 161.634 28.7441C160.919 28.9902 160.099 29.1426 159.173 29.2012L158.206 30.3613ZM158.206 38.5H150.894L152.581 35.1602H158.206C158.956 35.1602 159.578 35.0664 160.07 34.8789C160.562 34.6914 160.925 34.4219 161.16 34.0703C161.406 33.707 161.529 33.2793 161.529 32.7871C161.529 32.2832 161.411 31.8496 161.177 31.4863C160.943 31.123 160.579 30.8477 160.087 30.6602C159.607 30.4609 158.98 30.3613 158.206 30.3613H153.372L153.408 27.373H159.156L160.369 28.5332C161.576 28.6152 162.578 28.873 163.374 29.3066C164.171 29.7402 164.769 30.2852 165.167 30.9414C165.566 31.5977 165.765 32.3125 165.765 33.0859C165.765 33.9766 165.595 34.7617 165.255 35.4414C164.927 36.1211 164.435 36.6895 163.779 37.1465C163.134 37.5918 162.343 37.9316 161.406 38.166C160.468 38.3887 159.402 38.5 158.206 38.5ZM177.806 38.8516C176.4 38.8516 175.128 38.623 173.992 38.166C172.867 37.6973 171.906 37.0469 171.109 36.2148C170.324 35.3828 169.72 34.4043 169.298 33.2793C168.876 32.1543 168.665 30.9414 168.665 29.6406V28.9375C168.665 27.4492 168.882 26.1016 169.316 24.8945C169.749 23.6875 170.353 22.6562 171.126 21.8008C171.9 20.9336 172.814 20.2715 173.869 19.8145C174.923 19.3574 176.066 19.1289 177.296 19.1289C178.656 19.1289 179.845 19.3574 180.865 19.8145C181.884 20.2715 182.728 20.916 183.396 21.748C184.076 22.5684 184.579 23.5469 184.908 24.6836C185.247 25.8203 185.417 27.0742 185.417 28.4453V30.2559H170.722V27.2148H181.234V26.8809C181.21 26.1191 181.058 25.4043 180.777 24.7363C180.507 24.0684 180.091 23.5293 179.529 23.1191C178.966 22.709 178.216 22.5039 177.279 22.5039C176.576 22.5039 175.949 22.6562 175.398 22.9609C174.859 23.2539 174.408 23.6816 174.044 24.2441C173.681 24.8066 173.4 25.4863 173.201 26.2832C173.013 27.0684 172.919 27.9531 172.919 28.9375V29.6406C172.919 30.4727 173.031 31.2461 173.253 31.9609C173.488 32.6641 173.828 33.2793 174.273 33.8066C174.718 34.334 175.257 34.75 175.89 35.0547C176.523 35.3477 177.244 35.4941 178.052 35.4941C179.072 35.4941 179.98 35.2891 180.777 34.8789C181.574 34.4688 182.265 33.8887 182.851 33.1387L185.083 35.3008C184.673 35.8984 184.14 36.4727 183.484 37.0234C182.828 37.5625 182.025 38.002 181.076 38.3418C180.138 38.6816 179.048 38.8516 177.806 38.8516ZM192.976 23.1367V45.8125H188.74V19.4805H192.642L192.976 23.1367ZM205.369 28.8145V29.1836C205.369 30.5664 205.204 31.8496 204.876 33.0332C204.56 34.2051 204.085 35.2305 203.453 36.1094C202.831 36.9766 202.064 37.6504 201.15 38.1309C200.236 38.6113 199.181 38.8516 197.986 38.8516C196.802 38.8516 195.765 38.6348 194.874 38.2012C193.995 37.7559 193.251 37.1289 192.642 36.3203C192.033 35.5117 191.54 34.5625 191.165 33.4727C190.802 32.3711 190.544 31.1641 190.392 29.8516V28.4277C190.544 27.0332 190.802 25.7676 191.165 24.6309C191.54 23.4941 192.033 22.5156 192.642 21.6953C193.251 20.875 193.995 20.2422 194.874 19.7969C195.753 19.3516 196.779 19.1289 197.951 19.1289C199.146 19.1289 200.206 19.3633 201.132 19.832C202.058 20.2891 202.837 20.9453 203.47 21.8008C204.103 22.6445 204.578 23.6641 204.894 24.8594C205.21 26.043 205.369 27.3613 205.369 28.8145ZM201.132 29.1836V28.8145C201.132 27.9355 201.05 27.1211 200.886 26.3711C200.722 25.6094 200.464 24.9414 200.113 24.3672C199.761 23.793 199.31 23.3477 198.759 23.0312C198.22 22.7031 197.57 22.5391 196.808 22.5391C196.058 22.5391 195.413 22.668 194.874 22.9258C194.335 23.1719 193.884 23.5176 193.521 23.9629C193.158 24.4082 192.876 24.9297 192.677 25.5273C192.478 26.1133 192.337 26.752 192.255 27.4434V30.8535C192.396 31.6973 192.636 32.4707 192.976 33.1738C193.316 33.877 193.796 34.4395 194.417 34.8613C195.05 35.2715 195.859 35.4766 196.843 35.4766C197.605 35.4766 198.255 35.3125 198.794 34.9844C199.333 34.6562 199.773 34.2051 200.113 33.6309C200.464 33.0449 200.722 32.3711 200.886 31.6094C201.05 30.8477 201.132 30.0391 201.132 29.1836Z" fill="#008BD1"/>
<path d="M224.511 30.168H228.906C228.765 31.8438 228.296 33.3379 227.499 34.6504C226.703 35.9512 225.583 36.9766 224.142 37.7266C222.701 38.4766 220.949 38.8516 218.886 38.8516C217.304 38.8516 215.88 38.5703 214.615 38.0078C213.349 37.4336 212.265 36.625 211.363 35.582C210.46 34.5273 209.769 33.2559 209.288 31.7676C208.82 30.2793 208.585 28.6152 208.585 26.7754V24.6484C208.585 22.8086 208.826 21.1445 209.306 19.6562C209.798 18.168 210.501 16.8965 211.415 15.8418C212.329 14.7754 213.425 13.9609 214.703 13.3984C215.992 12.8359 217.439 12.5547 219.044 12.5547C221.083 12.5547 222.806 12.9297 224.212 13.6797C225.619 14.4297 226.708 15.4668 227.482 16.791C228.267 18.1152 228.747 19.6328 228.923 21.3438H224.529C224.411 20.2422 224.154 19.2988 223.755 18.5137C223.369 17.7285 222.794 17.1309 222.033 16.7207C221.271 16.2988 220.275 16.0879 219.044 16.0879C218.036 16.0879 217.158 16.2754 216.408 16.6504C215.658 17.0254 215.031 17.5762 214.527 18.3027C214.023 19.0293 213.642 19.9258 213.384 20.9922C213.138 22.0469 213.015 23.2539 213.015 24.6133V26.7754C213.015 28.0645 213.126 29.2363 213.349 30.291C213.583 31.334 213.935 32.2305 214.404 32.9805C214.884 33.7305 215.494 34.3105 216.232 34.7207C216.97 35.1309 217.855 35.3359 218.886 35.3359C220.14 35.3359 221.154 35.1367 221.927 34.7383C222.712 34.3398 223.304 33.7598 223.703 32.998C224.113 32.2246 224.382 31.2812 224.511 30.168ZM241.316 19.4805V38.5H237.062V19.4805H241.316ZM247.556 19.4805V22.8203H230.927V19.4805H247.556ZM248.91 29.2012V28.7969C248.91 27.4258 249.109 26.1543 249.507 24.9824C249.906 23.7988 250.48 22.7734 251.23 21.9062C251.992 21.0273 252.917 20.3477 254.007 19.8672C255.109 19.375 256.351 19.1289 257.734 19.1289C259.128 19.1289 260.37 19.375 261.46 19.8672C262.562 20.3477 263.494 21.0273 264.255 21.9062C265.017 22.7734 265.597 23.7988 265.995 24.9824C266.394 26.1543 266.593 27.4258 266.593 28.7969V29.2012C266.593 30.5723 266.394 31.8438 265.995 33.0156C265.597 34.1875 265.017 35.2129 264.255 36.0918C263.494 36.959 262.568 37.6387 261.478 38.1309C260.388 38.6113 259.152 38.8516 257.769 38.8516C256.374 38.8516 255.126 38.6113 254.025 38.1309C252.935 37.6387 252.009 36.959 251.247 36.0918C250.486 35.2129 249.906 34.1875 249.507 33.0156C249.109 31.8438 248.91 30.5723 248.91 29.2012ZM253.146 28.7969V29.2012C253.146 30.0566 253.234 30.8652 253.41 31.627C253.585 32.3887 253.861 33.0566 254.236 33.6309C254.611 34.2051 255.091 34.6562 255.677 34.9844C256.263 35.3125 256.96 35.4766 257.769 35.4766C258.554 35.4766 259.234 35.3125 259.808 34.9844C260.394 34.6562 260.874 34.2051 261.249 33.6309C261.624 33.0566 261.9 32.3887 262.076 31.627C262.263 30.8652 262.357 30.0566 262.357 29.2012V28.7969C262.357 27.9531 262.263 27.1562 262.076 26.4062C261.9 25.6445 261.619 24.9707 261.232 24.3848C260.857 23.7988 260.376 23.3418 259.79 23.0137C259.216 22.6738 258.531 22.5039 257.734 22.5039C256.937 22.5039 256.245 22.6738 255.66 23.0137C255.085 23.3418 254.611 23.7988 254.236 24.3848C253.861 24.9707 253.585 25.6445 253.41 26.4062C253.234 27.1562 253.146 27.9531 253.146 28.7969ZM275.382 36.4258L280.55 19.4805H285.085L277.456 41.4004C277.281 41.8691 277.052 42.3789 276.771 42.9297C276.49 43.4805 276.12 44.002 275.663 44.4941C275.218 44.998 274.661 45.4023 273.994 45.707C273.326 46.0234 272.517 46.1816 271.568 46.1816C271.193 46.1816 270.829 46.1465 270.478 46.0762C270.138 46.0176 269.816 45.9531 269.511 45.8828L269.494 42.6484C269.611 42.6602 269.751 42.6719 269.915 42.6836C270.091 42.6953 270.232 42.7012 270.337 42.7012C271.04 42.7012 271.626 42.6133 272.095 42.4375C272.564 42.2734 272.945 42.0039 273.238 41.6289C273.542 41.2539 273.8 40.75 274.011 40.1172L275.382 36.4258ZM272.464 19.4805L276.982 33.7188L277.738 38.1836L274.802 38.9395L267.894 19.4805H272.464ZM300.501 27.4258V30.7656H290.658V27.4258H300.501ZM291.888 19.4805V38.5H287.652V19.4805H291.888ZM303.56 19.4805V38.5H299.324V19.4805H303.56Z" fill="#707070"/>
<defs>
<clipPath id="clip0_84_453">
<rect width="51.3675" height="51" fill="white" transform="translate(0.862305)"/>
</clipPath>
</defs>
</svg>
