<?xml version="1.0" encoding="UTF-8"?>
<svg id="_Слой_2" data-name="Слой 2" xmlns="http://www.w3.org/2000/svg" viewBox="0 0 66.33 68">
  <defs>
    <style>
      .cls-1 {
        fill: #707070;
        stroke-width: 0px;
      }

      .cls-2 {
        fill: #008bd1;
        stroke: #008bd1;
        stroke-miterlimit: 10;
      }
    </style>
  </defs>
  <g id="_Слой_1-2" data-name="Слой 1">
    <path class="cls-2" d="m62.28,15.5V6.5c0-3.31-2.58-6-5.76-6H4.66v6h48.98c1.59,0,2.88,1.34,2.88,3v6h-2.88l5.76,6,5.76-6h-2.88Z"/>
    <path class="cls-2" d="m3.99,52.5v9c0,3.31,2.54,6,5.67,6h51v-6H12.49c-1.56,0-2.83-1.34-2.83-3v-6h2.83l-5.67-6-5.67,6h2.83Z"/>
    <g>
      <path class="cls-1" d="m14.12,36.85v-19.52h32.42v-6.97H15.17c-5.78,0-10.46,6.24-10.46,13.94v5.58c0,7.7,4.68,13.94,10.46,13.94h31.37v-6.97H14.12Z"/>
      <path class="cls-1" d="m51.52,30.86v19.52H19.1v6.97h31.37c5.78,0,10.46-6.24,10.46-13.94v-5.58c0-7.7-4.68-13.94-10.46-13.94h-31.37v6.97h32.42Z"/>
    </g>
  </g>
</svg>